<?xml version="1.0" standalone="no"?>
<!DOCTYPE svg PUBLIC "-//W3C//DTD SVG 20010904//EN"
 "http://www.w3.org/TR/2001/REC-SVG-20010904/DTD/svg10.dtd">
<svg version="1.0" xmlns="http://www.w3.org/2000/svg"
 width="395.000000pt" height="395.000000pt" viewBox="0 0 395.000000 395.000000"
 preserveAspectRatio="xMidYMid meet">
<metadata>
Created by potrace 1.11, written by Peter Selinger 2001-2013
</metadata>
<g transform="translate(0.000000,395.000000) scale(0.100000,-0.100000)"
fill="#000000" stroke="none">
<path d="M3039 3308 c-11 -5 -26 -5 -31 -1 -6 3 -8 1 -4 -5 3 -6 2 -13 -4 -17
-5 -3 -10 -16 -10 -29 0 -12 -6 -28 -12 -35 -7 -8 -8 -11 -2 -8 6 3 11 0 11
-8 0 -8 -4 -12 -9 -9 -4 3 -8 0 -8 -5 0 -6 6 -11 13 -11 8 0 8 -3 1 -8 -6 -4
-10 -19 -9 -34 1 -18 -2 -25 -12 -21 -8 3 -13 -2 -13 -13 0 -9 -3 -15 -6 -11
-3 3 -14 -2 -25 -11 -11 -9 -23 -17 -27 -16 -4 1 -20 -13 -36 -30 -16 -17 -23
-22 -15 -11 13 18 13 19 -3 6 -10 -7 -18 -19 -18 -25 0 -7 -11 -12 -25 -12
-19 0 -24 4 -20 16 5 12 4 13 -6 3 -7 -7 -17 -13 -22 -13 -4 0 -5 6 -1 13 5 7
0 6 -11 -3 -10 -8 -16 -10 -12 -4 4 7 -18 10 -68 10 -40 0 -71 -4 -69 -8 3 -5
10 -5 16 -2 6 4 8 1 6 -7 -3 -8 -10 -13 -16 -12 -7 2 -9 -4 -5 -14 4 -9 2 -14
-3 -11 -5 4 -10 -7 -11 -23 -1 -16 -8 -39 -14 -51 -7 -13 -14 -32 -15 -43 -5
-40 -24 -76 -36 -69 -10 5 -10 4 -2 -5 8 -9 9 -22 1 -46 -5 -19 -13 -33 -16
-31 -8 6 -6 -58 3 -72 4 -7 4 -16 1 -22 -3 -6 1 -7 9 -4 9 3 16 1 16 -5 0 -6
9 -11 20 -11 11 0 20 -4 20 -10 0 -5 3 -9 8 -8 11 4 72 -26 72 -35 0 -5 4 -6
9 -3 11 7 24 -60 15 -76 -4 -7 -3 -8 4 -4 7 4 12 2 12 -4 0 -7 9 -9 23 -5 12
4 30 9 41 12 13 4 17 1 12 -8 -4 -8 -2 -7 6 2 7 9 23 19 36 23 12 4 20 11 17
16 -5 8 -15 72 -18 117 -1 11 -5 19 -9 17 -4 -3 -10 1 -15 8 -4 7 -21 20 -38
28 -16 8 -40 26 -52 39 -13 13 -23 19 -23 13 0 -6 8 -16 18 -22 10 -7 11 -10
3 -7 -21 5 -38 36 -26 45 6 4 11 16 13 27 3 19 11 45 28 90 4 11 7 23 6 27 -1
4 5 5 14 1 9 -3 23 -7 32 -8 10 0 34 -5 55 -9 40 -9 97 7 97 28 0 6 16 23 34
39 37 29 52 35 40 15 -4 -7 -3 -8 4 -4 6 4 8 14 5 24 -3 9 -2 14 2 9 5 -4 15
-1 24 7 9 8 23 16 31 18 8 2 23 11 34 20 10 10 23 15 27 12 5 -3 6 2 3 10 -6
15 6 21 29 17 5 -1 6 3 2 9 -3 6 -10 8 -15 5 -4 -2 -7 11 -7 30 1 19 5 35 10
35 5 0 6 7 3 16 -8 22 14 50 25 33 6 -10 11 -10 25 2 9 8 19 13 20 11 13 -13
64 -18 74 -9 10 9 11 9 5 -2 -6 -10 -2 -11 16 -6 22 7 23 7 9 -10 -8 -11 -10
-16 -4 -12 14 8 23 -23 20 -68 -1 -22 7 -38 33 -62 18 -18 39 -33 46 -33 6 0
17 -10 24 -22 9 -19 11 -19 6 -3 -5 19 -4 19 9 2 8 -10 18 -19 23 -20 4 -1 7
-6 5 -10 -1 -5 2 -6 8 -2 6 4 31 -14 57 -39 25 -25 54 -46 63 -46 9 0 22 -6
29 -12 10 -11 12 -10 9 2 -2 10 4 15 20 14 12 -1 22 3 22 9 0 5 8 3 17 -4 9
-8 14 -9 10 -3 -4 7 2 12 18 12 23 0 23 -1 7 -17 -10 -9 -12 -12 -5 -8 14 10
33 1 33 -14 0 -6 -4 -8 -9 -4 -5 3 -13 1 -16 -5 -4 -6 -1 -9 6 -8 17 4 42 -44
28 -53 -7 -4 -4 -9 6 -13 11 -4 14 -12 10 -27 -5 -16 -4 -19 5 -14 9 6 11 4 5
-4 -4 -7 -16 -11 -26 -8 -11 3 -17 2 -14 -3 5 -8 -84 -55 -98 -52 -5 2 -6 -2
-3 -7 4 -5 2 -12 -2 -15 -5 -3 -9 -19 -10 -37 -1 -37 -7 -45 -25 -33 -7 5 -4
1 6 -8 11 -10 15 -18 9 -18 -6 0 -8 -9 -5 -20 3 -12 0 -20 -6 -20 -7 0 -10 -4
-7 -9 6 -9 -21 -72 -35 -81 -15 -10 -14 -75 1 -93 8 -10 15 -21 14 -25 0 -4 8
-15 17 -25 21 -23 19 -41 -9 -67 -20 -19 -27 -18 -23 3 1 5 -3 6 -8 2 -6 -3
-8 -12 -5 -19 3 -9 -3 -17 -15 -21 -12 -3 -19 -10 -16 -15 3 -4 -2 -10 -10
-14 -8 -3 -19 3 -25 12 -9 15 -10 14 -5 -5 3 -12 1 -24 -7 -29 -7 -4 -10 -3
-5 1 4 5 -5 17 -20 27 -16 10 -24 18 -19 18 4 0 -9 16 -30 35 -35 31 -44 34
-84 31 -25 -2 -51 1 -58 6 -9 8 -11 6 -5 -8 6 -17 5 -18 -12 -4 -11 9 -16 10
-11 3 4 -7 3 -13 -3 -13 -5 0 -13 5 -16 10 -3 6 -12 10 -18 10 -7 0 -6 -4 3
-10 11 -8 6 -10 -20 -6 -19 2 -35 5 -35 6 0 2 -20 4 -45 4 -44 2 -80 -19 -80
-47 0 -5 -7 -4 -15 3 -13 11 -14 10 -10 -3 4 -9 -2 -21 -14 -29 -12 -8 -18
-18 -14 -21 3 -4 -1 -7 -10 -7 -9 0 -20 6 -24 14 -4 8 -12 15 -18 16 -5 1 -9
7 -7 12 2 6 -4 8 -11 5 -8 -3 -30 8 -48 24 -19 16 -27 26 -18 23 10 -3 19 -1
23 4 3 5 -9 8 -26 7 l-32 -2 27 23 c17 15 22 24 14 27 -9 4 -9 6 1 6 6 1 12
10 12 22 0 16 4 20 18 15 9 -3 4 6 -13 20 -16 14 -24 23 -16 19 9 -6 12 -4 7
4 -4 6 -12 9 -17 6 -9 -6 -68 22 -80 38 -3 4 -14 -11 -24 -33 -16 -36 -45 -63
-67 -65 -3 0 -9 -3 -13 -7 -10 -9 17 -4 35 7 8 5 2 -12 -13 -38 -22 -37 -27
-54 -21 -82 3 -19 10 -35 16 -35 5 0 6 -4 3 -10 -3 -5 0 -7 8 -4 9 3 22 -4 31
-18 9 -12 16 -18 16 -13 0 6 3 6 8 0 4 -5 23 -21 42 -35 46 -31 57 -41 86 -67
13 -12 24 -20 24 -17 0 3 13 -4 29 -15 42 -30 83 -27 119 9 16 16 27 32 24 35
-5 5 14 9 31 6 5 -1 6 3 2 9 -8 13 14 42 26 34 5 -3 9 0 9 7 0 9 3 9 14 0 11
-9 15 -9 19 1 3 7 6 9 6 3 1 -6 30 -8 78 -4 l78 6 42 -46 c23 -25 39 -50 36
-55 -4 -5 -2 -6 4 -3 6 4 19 -2 29 -12 22 -21 73 -14 105 14 16 15 21 16 36 4
15 -11 16 -11 6 0 -9 11 -9 17 2 27 7 8 18 14 24 14 6 0 11 4 11 9 0 11 50 44
67 44 6 0 11 3 10 6 -1 3 1 6 4 6 3 0 20 15 39 33 25 25 35 30 41 20 6 -9 8
-7 9 7 0 11 2 39 4 63 2 23 0 42 -5 42 -5 0 -15 12 -21 28 -7 15 -18 35 -26
45 -9 9 -11 17 -6 17 5 0 3 4 -4 8 -16 10 -4 45 12 35 6 -4 4 2 -4 12 -13 17
-13 18 1 13 10 -4 15 1 16 16 2 25 7 47 14 61 3 6 5 17 5 25 -1 8 8 20 19 25
11 6 20 17 20 25 0 8 5 15 10 16 6 0 30 10 55 22 24 11 48 18 52 16 5 -3 7 -2
6 3 -1 4 2 17 8 28 10 19 10 29 0 80 -3 21 -22 71 -33 88 -4 6 -1 7 8 2 11 -7
12 -6 2 7 -7 8 -10 18 -6 21 3 4 1 7 -6 7 -7 0 -10 4 -7 9 4 5 3 11 -1 13 -5
1 -16 27 -25 56 -10 34 -12 50 -5 45 7 -4 0 9 -15 29 -15 19 -25 38 -22 41 7
7 -106 -2 -119 -10 -6 -4 -7 -1 -2 8 8 12 6 12 -8 1 -9 -8 -20 -11 -26 -8 -5
3 -11 1 -13 -5 -2 -7 -13 -9 -26 -5 -12 4 -20 12 -17 17 4 5 -3 9 -15 9 -14 0
-20 5 -18 18 2 10 -2 16 -10 14 -15 -3 -72 29 -72 40 0 4 -7 8 -15 8 -8 0 -15
7 -15 16 0 8 -4 13 -8 10 -5 -3 -9 14 -10 37 0 23 -3 57 -6 75 -4 23 -2 31 6
26 7 -4 8 -3 4 5 -4 6 -12 9 -17 6 -8 -5 -13 7 -11 26 1 9 -9 9 -196 12 -94 1
-181 -1 -193 -5z m756 -788 c-3 -5 -11 -10 -16 -10 -6 0 -7 5 -4 10 3 6 11 10
16 10 6 0 7 -4 4 -10z"/>
<path d="M3211 3157 c2 -1 13 -9 24 -17 19 -14 19 -14 6 3 -7 9 -18 17 -24 17
-6 0 -8 -1 -6 -3z"/>
<path d="M3460 3156 c0 -2 7 -9 15 -16 13 -11 14 -10 9 4 -5 14 -24 23 -24 12z"/>
<path d="M3295 3110 c3 -5 8 -10 11 -10 2 0 4 5 4 10 0 6 -5 10 -11 10 -5 0
-7 -4 -4 -10z"/>
<path d="M3750 3030 c0 -5 5 -10 11 -10 5 0 7 5 4 10 -3 6 -8 10 -11 10 -2 0
-4 -4 -4 -10z"/>
<path d="M3635 3021 c-3 -5 -2 -12 3 -15 5 -3 9 1 9 9 0 17 -3 19 -12 6z"/>
<path d="M2790 3009 c0 -5 5 -7 10 -4 6 3 10 8 10 11 0 2 -4 4 -10 4 -5 0 -10
-5 -10 -11z"/>
<path d="M1595 2990 c-3 -5 -1 -10 4 -10 6 0 11 5 11 10 0 6 -2 10 -4 10 -3 0
-8 -4 -11 -10z"/>
<path d="M1647 2986 c-3 -8 -22 -13 -49 -14 -23 0 -54 -3 -68 -6 -14 -4 -38
-9 -54 -12 -16 -2 -33 -7 -37 -9 -4 -3 -10 1 -12 7 -3 8 -6 6 -6 -4 -1 -10 -6
-18 -12 -18 -5 0 -7 6 -3 13 4 6 -2 4 -12 -5 -11 -10 -35 -21 -52 -24 -18 -4
-32 -10 -32 -15 0 -4 -9 -6 -20 -4 -11 2 -19 -1 -17 -8 1 -7 -6 -11 -15 -11
-10 1 -18 -2 -18 -6 0 -4 -24 -23 -52 -41 -29 -18 -63 -44 -74 -57 -12 -14
-26 -22 -32 -18 -5 3 -13 -5 -16 -19 -4 -14 -11 -25 -16 -25 -5 0 -7 8 -3 18
3 9 3 14 -1 10 -7 -5 -13 -27 -15 -52 -1 -4 -7 -6 -15 -3 -8 3 -13 -1 -12 -11
0 -9 -6 -17 -14 -17 -9 0 -14 -8 -12 -19 3 -13 -1 -17 -12 -13 -11 4 -13 1 -9
-10 3 -9 0 -21 -8 -27 -16 -11 -33 -45 -31 -58 1 -5 -2 -8 -7 -8 -10 0 -36
-60 -40 -91 0 -5 -5 -8 -10 -5 -4 3 -7 -6 -5 -20 2 -20 -1 -24 -14 -19 -13 5
-14 4 -5 -6 8 -8 9 -18 2 -30 -5 -10 -9 -22 -8 -26 5 -32 -2 -44 -23 -38 -22
7 -23 7 -3 -8 19 -15 19 -15 -7 -10 -19 4 -25 10 -22 22 5 13 3 13 -6 -2 -6
-9 -16 -15 -21 -11 -6 3 -37 6 -69 7 -34 1 -60 6 -60 12 0 7 -3 7 -8 0 -8 -13
-113 -35 -106 -23 3 4 1 8 -5 8 -5 0 -11 -5 -13 -11 -2 -7 -18 -12 -35 -13
-17 0 -29 -4 -27 -8 4 -6 -67 -34 -75 -29 -2 2 -8 -4 -13 -13 -5 -9 -13 -14
-19 -11 -5 4 -9 1 -9 -4 0 -6 -9 -11 -21 -11 -11 0 -17 -4 -14 -10 6 -9 -8
-14 -28 -11 -5 1 -6 -3 -3 -8 8 -12 -21 -34 -34 -26 -6 4 -10 3 -9 -2 3 -18
-1 -36 -8 -30 -3 4 -12 -1 -20 -11 -8 -9 -11 -11 -7 -3 5 9 3 12 -5 7 -6 -4
-9 -11 -6 -16 3 -5 -1 -14 -8 -22 -7 -7 -22 -27 -32 -45 -10 -18 -22 -30 -26
-27 -4 2 -11 -1 -15 -7 -4 -8 -3 -9 4 -5 23 14 11 -13 -18 -40 -20 -20 -26
-32 -19 -40 6 -8 5 -16 -3 -25 -7 -8 -13 -20 -14 -26 -1 -7 -2 -22 -2 -34 -1
-11 -5 -18 -10 -16 -12 8 -12 -243 0 -293 5 -25 11 -51 11 -57 0 -7 3 -13 7
-13 7 0 35 -80 32 -92 -1 -5 3 -8 8 -8 6 0 8 -11 6 -25 -3 -15 -1 -23 5 -20 5
4 7 11 4 16 -4 5 -4 9 -1 9 8 0 41 -63 38 -73 -1 -4 1 -6 5 -5 5 2 10 -1 12
-7 3 -5 15 -18 28 -28 13 -10 23 -25 23 -33 0 -8 6 -13 13 -12 6 2 11 -5 11
-15 -2 -13 1 -15 11 -7 14 12 50 -21 38 -35 -5 -4 -3 -5 4 -1 7 4 21 1 32 -6
16 -10 18 -15 8 -28 -10 -13 -10 -13 4 -3 13 10 25 8 66 -12 28 -13 63 -27 78
-31 19 -5 25 -11 21 -23 -5 -14 -5 -14 6 0 11 12 20 13 48 5 19 -6 41 -15 49
-20 10 -6 12 -6 7 2 -5 8 1 12 14 12 12 0 19 -4 16 -8 -3 -5 1 -9 9 -9 8 0 12
4 9 9 -3 4 0 8 5 8 6 0 11 -5 11 -12 0 -9 3 -9 12 0 7 7 17 12 23 12 5 0 3 -5
-5 -10 -9 -6 -10 -10 -3 -10 6 0 14 3 16 8 7 10 79 8 96 -3 10 -5 12 -4 7 3
-4 7 -2 12 3 12 6 0 11 -5 11 -11 0 -8 6 -7 17 2 11 10 14 10 9 2 -4 -7 -2
-13 3 -13 6 0 11 5 11 10 0 11 41 7 61 -6 8 -4 9 -3 5 4 -4 7 -2 12 3 12 6 0
11 -5 11 -11 0 -8 6 -7 17 2 11 10 14 10 9 2 -4 -7 -2 -13 3 -13 6 0 11 5 11
11 0 6 6 9 13 6 6 -2 11 -10 9 -16 -1 -7 2 -10 8 -6 6 3 8 10 6 14 -3 3 4 7
14 7 10 0 16 -4 14 -8 -3 -4 0 -8 5 -8 6 0 11 5 11 11 0 6 6 9 13 6 6 -2 11
-10 9 -16 -1 -7 2 -10 8 -6 6 3 8 10 6 14 -3 3 4 7 14 7 10 0 16 -5 13 -10 -4
-5 -1 -6 7 -1 19 11 90 12 90 1 0 -4 8 -2 17 5 11 10 14 10 9 2 -4 -7 -2 -13
3 -13 6 0 11 5 11 10 0 11 41 7 61 -6 8 -4 9 -3 5 4 -4 7 -2 12 3 12 6 0 11
-5 11 -11 0 -8 5 -7 16 2 13 10 17 10 25 -2 5 -9 9 -10 9 -2 0 6 8 10 18 8 11
-2 18 3 18 13 1 10 4 26 8 37 6 16 6 17 -3 5 -9 -13 -11 -13 -11 3 0 9 6 17
13 17 9 0 9 2 -1 9 -8 4 -13 11 -13 15 1 3 1 18 1 32 0 20 -3 24 -12 17 -7 -5
-19 -8 -25 -7 -7 1 -27 2 -44 3 -21 1 -28 5 -24 13 4 7 1 6 -7 -2 -10 -11 -31
-14 -83 -12 -38 1 -89 2 -113 2 -32 0 -42 3 -37 12 4 7 0 5 -8 -5 -11 -14 -16
-15 -20 -5 -3 7 -6 9 -6 3 -1 -8 -32 -10 -84 -6 -5 1 -5 7 -2 14 4 6 0 4 -8
-6 -13 -15 -16 -16 -27 -2 -9 11 -16 13 -24 5 -14 -14 -29 -13 -21 3 4 6 1 5
-7 -3 -16 -18 -82 -15 -72 3 3 7 0 5 -8 -3 -14 -16 -48 -23 -48 -10 0 5 6 11
13 13 9 4 9 6 0 6 -6 1 -15 -3 -18 -9 -9 -15 -27 -12 -20 3 4 6 0 4 -8 -5 -8
-10 -16 -16 -18 -13 -3 2 -32 5 -64 7 -33 1 -66 6 -73 11 -6 5 -12 6 -13 1 0
-5 -4 0 -9 11 -7 17 -9 18 -9 2 -1 -13 -5 -15 -18 -9 -63 31 -78 40 -76 49 1
6 -9 8 -22 5 -15 -2 -25 0 -25 7 0 7 4 10 9 6 5 -3 12 -1 16 4 3 6 -5 8 -18 5
-18 -3 -37 8 -77 45 -34 32 -50 53 -45 61 5 8 4 11 -2 7 -6 -4 -16 0 -23 8
-10 12 -8 13 10 10 13 -2 20 -1 16 2 -4 4 -14 8 -23 9 -17 3 -29 19 -50 67
-13 29 -6 35 17 15 12 -11 12 -10 1 5 -7 9 -20 17 -29 17 -8 0 -12 3 -9 6 3 4
1 16 -4 27 -13 23 -22 227 -11 227 5 0 14 -6 22 -12 8 -7 6 -3 -4 9 -14 17
-15 26 -6 42 6 12 8 21 4 21 -3 0 1 12 11 26 11 18 12 24 4 18 -12 -6 -12 -5
0 9 7 9 17 14 22 11 5 -3 9 -1 9 5 0 5 -5 11 -10 13 -6 2 -3 12 8 23 10 11 21
28 25 38 3 9 14 17 22 17 9 0 13 5 10 10 -11 18 15 42 31 30 9 -9 11 -7 7 8
-3 14 4 25 26 38 17 10 31 22 31 27 0 4 5 5 10 2 6 -4 7 -11 4 -17 -4 -7 -2
-8 4 -4 6 4 8 14 5 23 -4 11 -3 14 5 9 7 -4 12 -2 12 4 0 7 7 9 16 6 8 -3 13
-2 10 3 -6 9 49 32 117 50 60 16 251 4 267 -17 3 -4 14 -9 25 -10 11 -2 22 -8
25 -12 11 -17 74 16 92 48 10 18 13 30 7 26 -8 -5 -9 -3 -3 7 5 8 9 21 9 29 0
8 4 21 9 29 6 9 5 12 -2 8 -14 -9 -2 36 12 45 8 6 8 8 -1 8 -8 0 -8 8 0 33 7
17 14 34 17 37 3 3 6 12 8 20 4 21 45 104 55 111 5 3 8 8 7 10 -4 12 14 39 27
39 8 0 12 4 8 9 -3 6 3 14 12 20 10 6 15 11 10 11 -13 0 55 70 68 70 7 0 20
11 29 25 9 14 23 25 31 25 8 0 15 3 15 8 0 4 13 14 29 23 22 13 32 14 41 5 8
-8 9 -6 4 9 -7 18 -6 19 9 6 15 -12 17 -12 11 4 -5 13 -4 16 4 11 7 -4 12 -2
12 5 0 6 8 9 20 6 10 -3 19 -2 18 2 -2 19 3 24 12 11 8 -12 10 -12 10 -1 0 11
3 11 17 0 10 -8 14 -9 10 -2 -10 17 13 28 24 12 7 -11 9 -10 9 5 0 14 6 17 25
14 14 -3 25 -1 25 3 0 12 23 7 32 -6 5 -6 8 -5 8 3 0 7 4 11 9 7 5 -3 12 -1
15 4 3 5 15 7 26 4 11 -3 18 -9 15 -13 -3 -5 -1 -12 5 -15 6 -4 10 -3 9 2 -4
21 2 34 13 27 6 -4 31 -8 55 -9 23 -1 50 -9 60 -16 11 -9 14 -10 9 -1 -4 6 -2
12 3 12 6 0 11 -4 11 -9 0 -5 8 -8 17 -7 10 0 18 -4 18 -11 0 -6 4 -15 8 -20
5 -4 7 -2 5 6 -2 7 3 16 11 19 8 3 11 0 7 -7 -5 -7 -1 -9 8 -5 9 4 16 1 16 -6
0 -7 7 -10 15 -6 8 3 15 2 15 -3 0 -5 13 -11 29 -14 16 -3 35 -12 42 -19 18
-17 68 -43 72 -37 2 2 8 17 15 32 8 18 17 26 25 21 6 -4 9 -3 4 1 -4 5 0 19 8
31 15 23 11 59 -6 48 -5 -3 -12 2 -15 10 -3 9 -10 13 -15 10 -5 -3 -9 2 -9 10
0 9 -5 16 -11 16 -5 0 -8 -4 -5 -9 5 -8 -75 28 -84 38 -3 3 -12 8 -20 10 -8 2
-37 10 -65 18 -79 23 -146 34 -204 34 -32 0 -49 4 -42 8 8 5 9 11 3 15 -5 3
-12 0 -15 -8z m-1587 -1086 c0 -5 -5 -10 -11 -10 -5 0 -7 5 -4 10 3 6 8 10 11
10 2 0 4 -4 4 -10z"/>
<path d="M1760 2996 c0 -2 8 -10 18 -17 15 -13 16 -12 3 4 -13 16 -21 21 -21
13z"/>
<path d="M1876 2972 c-3 -5 1 -9 9 -9 8 0 12 4 9 9 -3 4 -7 8 -9 8 -2 0 -6 -4
-9 -8z"/>
<path d="M3356 2972 c-3 -5 1 -9 9 -9 8 0 12 4 9 9 -3 4 -7 8 -9 8 -2 0 -6 -4
-9 -8z"/>
<path d="M1330 2930 c0 -5 5 -10 11 -10 5 0 7 5 4 10 -3 6 -8 10 -11 10 -2 0
-4 -4 -4 -10z"/>
<path d="M3875 2910 c3 -5 8 -10 11 -10 2 0 4 5 4 10 0 6 -5 10 -11 10 -5 0
-7 -4 -4 -10z"/>
<path d="M3893 2875 c-3 -9 -3 -18 -1 -21 3 -3 8 4 11 16 6 23 -1 27 -10 5z"/>
<path d="M3215 2870 c-3 -5 -1 -10 4 -10 6 0 11 5 11 10 0 6 -2 10 -4 10 -3 0
-8 -4 -11 -10z"/>
<path d="M1173 2853 c4 -3 1 -13 -6 -22 -11 -14 -10 -14 5 -2 16 12 16 31 1
31 -4 0 -3 -3 0 -7z"/>
<path d="M3140 2845 c-7 -8 -21 -15 -31 -15 -11 0 -19 -5 -19 -10 0 -6 -8 -10
-17 -8 -10 2 -18 -1 -18 -7 -1 -17 -38 -54 -48 -48 -6 3 -7 1 -3 -5 4 -7 2
-12 -4 -12 -6 0 -9 -4 -6 -9 9 -13 -4 -42 -16 -35 -5 3 -9 0 -7 -7 4 -34 -2
-80 -10 -74 -5 3 -13 0 -17 -6 -4 -7 -3 -9 4 -5 6 3 13 2 17 -4 3 -5 0 -10 -7
-10 -10 0 -10 -2 0 -9 8 -5 14 -24 15 -44 0 -20 4 -34 8 -31 12 7 18 -23 7
-34 -7 -7 -4 -10 8 -9 11 1 23 -8 28 -20 6 -12 21 -27 34 -33 18 -8 23 -16 19
-33 -6 -21 -6 -21 8 -3 13 17 18 16 17 -4 0 -3 14 -6 31 -7 17 -1 34 -8 39
-15 5 -9 8 -10 8 -1 0 12 30 10 50 -2 6 -3 10 -1 10 6 0 8 5 7 17 -2 11 -10
14 -10 9 -1 -4 6 -3 12 3 12 5 0 13 -4 16 -10 3 -5 12 -10 18 -9 9 0 9 2 0 6
-7 2 -13 9 -13 15 0 6 7 8 15 4 8 -3 15 0 15 6 0 6 3 9 6 5 4 -3 30 17 58 46
36 36 56 66 65 97 7 25 17 53 22 62 5 9 5 19 0 22 -5 3 -8 24 -8 47 0 23 -5
44 -12 49 -8 4 -10 13 -6 20 5 8 4 11 -3 6 -6 -3 -13 -2 -17 3 -3 5 3 15 12
21 15 9 14 10 -6 4 -20 -5 -23 -3 -18 10 4 10 3 15 -2 12 -5 -3 -19 4 -32 15
-30 26 -71 48 -101 53 -13 3 -24 5 -25 6 -8 5 -74 2 -80 -3 -3 -4 -11 -7 -17
-7 -6 0 -4 5 4 10 8 5 10 10 4 10 -6 0 -17 -7 -24 -15z m132 -158 c4 -7 8 -7
8 -2 0 6 9 -3 19 -19 19 -28 19 -30 3 -42 -14 -10 -14 -12 -2 -11 8 1 15 -2
15 -8 0 -5 -4 -9 -9 -7 -5 2 -4 -4 3 -12 26 -32 -35 -88 -96 -88 -20 0 -39 6
-44 14 -5 7 -9 9 -9 4 0 -5 -9 -1 -19 8 -11 10 -17 24 -14 32 3 8 0 14 -6 14
-15 0 -14 40 2 41 10 0 10 2 0 6 -7 2 -13 9 -13 15 0 6 7 7 16 4 15 -6 15 -4
3 11 -12 15 -12 16 4 10 11 -4 16 -3 12 4 -12 18 15 40 35 29 28 -15 36 -12
14 5 -18 14 -16 15 26 9 25 -3 48 -11 52 -17z"/>
<path d="M3275 2650 c-3 -5 -1 -10 4 -10 6 0 11 5 11 10 0 6 -2 10 -4 10 -3 0
-8 -4 -11 -10z"/>
<path d="M3290 2555 c-7 -9 -11 -17 -9 -20 3 -2 10 5 17 15 14 24 10 26 -8 5z"/>
<path d="M3150 2529 c0 -5 5 -7 10 -4 6 3 10 8 10 11 0 2 -4 4 -10 4 -5 0 -10
-5 -10 -11z"/>
<path d="M2710 2840 c-8 -5 -10 -10 -5 -10 6 0 17 5 25 10 8 5 11 10 5 10 -5
0 -17 -5 -25 -10z"/>
<path d="M3933 2755 c0 -8 4 -12 9 -9 5 3 6 10 3 15 -9 13 -12 11 -12 -6z"/>
<path d="M1993 2725 c0 -8 4 -12 9 -9 5 3 6 10 3 15 -9 13 -12 11 -12 -6z"/>
<path d="M2106 2732 c-3 -5 1 -9 9 -9 8 0 12 4 9 9 -3 4 -7 8 -9 8 -2 0 -6 -4
-9 -8z"/>
<path d="M2476 2732 c-3 -5 1 -9 9 -9 8 0 12 4 9 9 -3 4 -7 8 -9 8 -2 0 -6 -4
-9 -8z"/>
<path d="M3753 2715 c0 -8 4 -12 9 -9 5 3 6 10 3 15 -9 13 -12 11 -12 -6z"/>
<path d="M3675 2671 c-3 -5 -2 -12 3 -15 5 -3 9 1 9 9 0 17 -3 19 -12 6z"/>
<path d="M1159 2618 c-5 -18 -6 -38 -1 -34 7 8 12 36 6 36 -2 0 -4 -1 -5 -2z"/>
<path d="M1617 2595 c-15 -8 -27 -11 -27 -7 0 3 -6 -2 -13 -13 -9 -11 -19 -15
-27 -10 -8 5 -11 4 -7 -2 4 -6 0 -16 -8 -23 -8 -7 -15 -9 -15 -4 0 5 -7 -2
-16 -14 -9 -14 -22 -21 -31 -18 -8 3 -12 2 -9 -2 3 -5 -4 -16 -14 -25 -13 -11
-20 -12 -24 -4 -3 8 -5 6 -5 -3 -1 -8 -18 -26 -38 -40 -21 -14 -46 -33 -56
-43 -10 -10 -22 -15 -27 -12 -6 4 -10 -1 -10 -9 0 -8 -7 -22 -16 -30 -8 -9
-11 -16 -5 -16 6 0 11 -7 11 -16 0 -9 -5 -12 -12 -8 -7 4 -3 -3 10 -15 16 -16
21 -29 17 -44 -5 -16 -4 -18 3 -8 7 9 12 10 16 2 4 -6 4 -11 -1 -11 -4 0 -3
-4 4 -8 6 -4 13 -14 15 -22 2 -8 10 -21 18 -28 13 -12 13 -13 0 -7 -13 6 -13
5 0 -7 17 -14 17 -22 6 -53 -4 -11 -13 -32 -18 -48 -9 -23 -13 -25 -26 -15
-13 12 -14 11 -2 -8 8 -13 10 -29 5 -40 -4 -11 -7 -27 -6 -36 1 -11 -4 -18
-16 -18 -14 0 -15 -2 -5 -9 8 -4 13 -12 12 -17 -2 -14 -29 -26 -42 -18 -6 4
-8 3 -5 -3 6 -10 -24 -30 -53 -35 -8 -2 -21 -9 -28 -16 -8 -7 -18 -10 -23 -7
-5 4 -9 1 -9 -5 0 -7 -7 -10 -15 -6 -8 3 -14 2 -13 -2 3 -16 -26 -61 -36 -56
-6 3 -3 -1 7 -9 17 -14 17 -16 1 -25 -16 -9 -15 -10 4 -16 12 -4 22 -14 22
-22 0 -9 -5 -13 -12 -9 -7 4 -5 0 6 -9 10 -8 15 -20 10 -27 -4 -7 -3 -10 3 -6
12 8 26 -50 16 -66 -3 -5 -1 -7 4 -4 6 4 14 0 17 -9 4 -10 2 -13 -7 -8 -9 6
-9 5 0 -8 7 -8 10 -18 6 -21 -3 -4 -1 -7 6 -7 8 0 11 -7 7 -15 -3 -8 -2 -15 3
-15 5 0 12 -15 16 -32 4 -18 10 -40 12 -48 3 -8 6 -24 7 -36 0 -12 8 -21 16
-20 8 1 14 -4 13 -10 -2 -13 79 -13 89 1 5 6 8 5 8 -2 0 -7 5 -13 11 -13 5 0
7 5 3 12 -5 8 -2 9 9 5 10 -3 17 -2 17 3 0 5 9 7 20 5 11 -2 20 0 20 4 0 5 13
8 29 7 32 -1 84 -43 74 -59 -3 -6 -1 -7 6 -3 10 6 27 -4 89 -55 6 -5 12 -6 12
-2 1 4 9 -2 19 -14 10 -12 21 -20 24 -16 3 3 5 -13 4 -35 -1 -22 1 -38 5 -36
5 3 8 0 8 -5 0 -6 -6 -11 -12 -11 -10 0 -9 -3 1 -9 8 -5 11 -16 6 -30 -4 -13
-2 -21 6 -21 8 0 8 -5 -2 -17 -12 -14 -12 -16 0 -8 11 6 13 4 8 -9 -5 -13 -1
-19 13 -23 11 -3 20 -9 20 -14 0 -5 9 -9 21 -9 13 0 18 -4 13 -12 -5 -7 -3 -8
7 -2 21 13 90 13 82 0 -4 -6 1 -5 10 3 14 11 17 11 17 0 0 -10 3 -10 12 -1 9
9 15 9 27 -1 12 -9 13 -9 7 1 -4 6 -3 12 2 12 5 0 14 -10 21 -23 9 -19 10 -19
6 -2 -4 18 0 21 30 21 19 0 35 -4 35 -9 0 -4 6 -5 13 0 6 4 38 8 69 8 39 1 63
7 76 18 10 9 21 15 23 13 3 -4 7 30 9 87 1 11 6 15 13 10 7 -4 6 1 -2 11 -11
13 -12 19 -3 25 8 4 10 15 6 26 -5 13 -4 16 5 10 10 -6 11 -3 2 13 -9 18 -6
23 30 41 22 12 45 18 51 15 6 -4 8 -3 5 3 -4 6 2 18 13 28 11 10 20 14 20 9 0
-5 5 -1 11 9 6 9 15 14 21 11 6 -4 8 -3 5 3 -9 14 34 49 61 49 13 0 22 -6 22
-16 0 -13 1 -13 10 0 8 13 11 12 25 -5 9 -11 14 -14 10 -7 -8 15 16 16 67 2
24 -7 44 -7 56 -1 11 6 25 6 37 0 17 -9 18 -9 4 3 -14 12 -14 16 3 43 10 17
18 40 18 53 0 12 6 22 14 22 8 0 18 4 21 10 3 6 -1 7 -9 4 -9 -3 -16 -1 -16 5
0 6 4 11 9 11 6 0 8 9 6 20 -2 11 0 22 6 25 5 4 9 15 9 26 0 10 4 19 10 19 5
0 7 6 4 14 -3 8 0 17 5 21 6 3 9 11 6 16 -4 5 -2 9 3 9 6 0 9 8 8 18 0 9 4 16
10 15 6 -1 11 4 11 12 0 8 -4 12 -9 9 -4 -3 -3 7 2 21 14 38 12 71 -5 85 -8 7
-12 17 -9 22 3 5 0 8 -7 6 -16 -3 -79 21 -79 31 0 4 -9 7 -21 8 -27 2 -51 22
-42 37 4 6 0 6 -9 -2 -13 -10 -17 -10 -22 3 -3 8 -3 22 0 30 4 8 1 15 -6 15
-8 0 -11 11 -8 29 2 17 1 28 -4 25 -4 -3 -8 3 -8 13 0 12 -3 14 -8 6 -4 -7
-18 -14 -30 -16 -12 -2 -25 -6 -28 -10 -12 -12 -36 -8 -28 5 4 7 3 8 -5 4 -6
-4 -9 -12 -6 -17 4 -5 -1 -9 -9 -9 -18 0 -20 -12 -7 -57 6 -21 5 -35 -2 -42
-8 -8 -8 -11 1 -11 7 0 12 -11 12 -24 0 -12 11 -35 25 -50 14 -15 25 -24 25
-20 0 3 11 -1 25 -10 14 -9 25 -13 25 -10 0 4 8 0 18 -9 10 -10 22 -14 25 -10
4 3 7 1 7 -6 0 -7 4 -10 9 -6 14 8 24 -14 13 -28 -6 -7 -12 -16 -14 -22 -1 -5
-7 -9 -13 -7 -5 2 -5 -2 2 -9 12 -12 6 -42 -7 -34 -5 3 -12 0 -16 -6 -4 -7 -3
-9 4 -5 18 11 22 -9 7 -37 -7 -14 -11 -28 -7 -31 3 -3 -3 -6 -14 -6 -16 0 -17
-2 -4 -11 11 -8 12 -12 2 -16 -6 -2 -10 -8 -8 -12 3 -4 -1 -8 -10 -8 -10 0
-12 7 -8 21 6 20 5 20 -8 2 -12 -15 -18 -17 -36 -7 -14 7 -22 8 -22 2 0 -12
-32 -2 -42 13 -5 7 -8 6 -8 -3 0 -11 -4 -10 -16 5 -8 10 -13 13 -9 7 4 -8 0
-13 -9 -13 -23 0 -24 0 -82 -59 -30 -30 -54 -51 -54 -47 0 5 -8 0 -17 -11 -10
-10 -13 -12 -8 -4 9 12 7 12 -12 0 -12 -7 -20 -15 -18 -18 7 -6 -86 -51 -95
-46 -3 2 -7 -1 -8 -8 -6 -46 -16 -76 -23 -71 -5 3 -6 10 -3 16 5 7 2 8 -5 4
-9 -6 -9 -12 3 -25 9 -10 14 -20 11 -23 -4 -4 -8 -26 -14 -92 -1 -4 -19 -6
-41 -4 -22 2 -42 -1 -44 -7 -2 -5 -5 -4 -5 3 -1 10 -6 10 -21 2 -11 -6 -20 -7
-20 -3 0 12 -64 10 -72 -2 -4 -6 -8 -2 -8 8 0 9 -5 17 -11 17 -5 0 -7 -4 -4
-10 3 -5 0 -7 -8 -4 -7 2 -14 11 -14 19 0 8 4 12 9 9 4 -3 8 0 8 5 0 6 -4 11
-10 11 -5 0 -10 5 -10 11 0 5 6 7 13 3 9 -6 9 -5 0 7 -15 19 -20 60 -9 78 6 9
5 12 -1 8 -12 -8 -26 20 -17 34 3 5 2 9 -3 7 -23 -5 -152 72 -204 123 -71 70
-106 87 -136 66 -7 -5 -20 -7 -28 -3 -8 3 -15 0 -15 -6 0 -6 -6 -5 -17 3 -14
12 -16 12 -8 0 6 -11 4 -13 -8 -8 -10 4 -17 1 -17 -6 0 -8 -4 -7 -9 3 -6 8 -7
18 -4 24 4 5 1 6 -7 1 -10 -6 -12 -4 -6 11 5 14 4 16 -4 8 -9 -9 -9 -17 -1
-33 7 -12 8 -21 3 -21 -5 0 -13 16 -19 35 -8 26 -8 34 0 29 7 -3 4 1 -5 9 -10
7 -19 28 -20 45 -1 18 -5 32 -9 32 -15 0 -17 45 -4 70 15 30 40 44 57 33 6 -3
8 -1 4 5 -5 9 22 25 47 27 4 0 12 6 16 14 5 7 13 11 18 8 5 -3 10 -1 10 6 1
13 12 91 16 110 1 7 9 18 17 25 8 8 9 11 3 7 -14 -7 -18 7 -6 19 4 3 8 13 9
20 5 34 16 56 26 50 7 -4 8 -2 4 4 -4 7 0 22 8 34 9 12 16 32 16 43 0 16 2 17
10 5 21 -32 8 7 -15 49 -28 49 -30 55 -12 46 6 -4 2 2 -9 12 -12 10 -30 34
-39 53 -16 32 -17 34 -1 21 14 -12 16 -12 11 1 -3 8 1 21 10 28 8 7 15 10 15
8 0 -3 16 10 36 28 20 19 40 32 44 29 5 -3 14 4 20 15 10 18 14 19 28 8 13
-11 15 -11 10 3 -4 10 -1 16 8 16 13 0 18 -11 15 -29 0 -5 5 -7 12 -5 6 1 11
-4 9 -11 -1 -8 2 -11 6 -8 5 3 27 -14 50 -39 22 -24 41 -42 43 -41 11 10 190
25 204 17 10 -5 55 -11 90 -12 11 0 23 -5 27 -12 6 -9 8 -9 8 1 0 6 5 12 10
12 6 0 29 20 52 45 44 47 61 57 52 28 -5 -14 -4 -15 4 -4 5 7 8 23 5 35 -4 19
-3 18 11 -4 l16 -25 -6 28 c-6 27 8 38 22 15 5 -7 3 -8 -6 -3 -8 5 -11 4 -6
-3 4 -6 12 -9 19 -6 7 2 28 -10 47 -28 18 -18 30 -26 26 -18 -4 8 4 2 18 -13
14 -15 26 -25 26 -21 0 4 11 -3 25 -16 24 -22 24 -24 8 -51 -10 -16 -22 -29
-27 -29 -5 0 -6 -3 -3 -6 3 -4 1 -16 -5 -28 -14 -26 -19 -68 -7 -60 12 7 51
-21 42 -30 -4 -4 0 -4 9 -1 8 3 22 -1 31 -9 13 -14 16 -14 28 0 16 19 34 50
49 82 5 13 14 21 18 18 4 -2 9 5 9 17 1 12 7 23 13 25 5 2 7 9 3 15 -4 6 0 8
9 5 11 -5 14 0 10 19 -3 18 -1 24 7 19 6 -4 8 -12 5 -18 -4 -7 -2 -8 4 -4 9 5
7 14 -4 32 -9 13 -13 24 -10 24 4 0 2 8 -3 18 -7 13 -6 23 2 32 10 12 9 12 -5
1 -19 -14 -42 -6 -32 11 5 8 1 9 -10 5 -10 -4 -19 -1 -22 7 -3 8 -15 16 -26
19 -15 4 -19 11 -14 24 6 14 4 15 -5 6 -9 -9 -17 -6 -35 12 -13 13 -33 26 -44
30 -11 3 -20 10 -20 14 0 4 -12 13 -26 20 -15 7 -24 17 -21 25 4 10 0 12 -14
9 -10 -3 -19 -1 -19 3 0 13 -62 39 -85 35 -11 -1 -45 -30 -75 -62 -43 -47 -60
-59 -75 -54 -16 6 -17 5 -5 -4 13 -9 13 -13 -4 -28 -10 -10 -16 -13 -13 -7 4
7 -29 10 -108 10 -63 -1 -115 -5 -115 -10 0 -5 -9 -1 -20 9 -11 10 -20 24 -20
32 0 8 -5 11 -12 7 -8 -5 -9 -2 -5 10 4 9 3 15 -2 11 -12 -7 -43 24 -35 36 3
5 1 8 -4 7 -5 -2 -19 8 -31 21 -12 13 -21 21 -21 17 0 -4 -8 -2 -18 3 -13 7
-27 6 -45 -4z m-356 -898 c-10 -9 -11 -8 -5 6 3 10 9 15 12 12 3 -3 0 -11 -7
-18z"/>
<path d="M3460 2505 c-7 -9 -11 -17 -9 -20 3 -2 10 5 17 15 14 24 10 26 -8 5z"/>
<path d="M1815 2479 c-4 -6 -5 -12 -2 -15 2 -3 7 2 10 11 7 17 1 20 -8 4z"/>
<path d="M1366 2452 c-3 -5 1 -9 9 -9 8 0 12 4 9 9 -3 4 -7 8 -9 8 -2 0 -6 -4
-9 -8z"/>
<path d="M3550 2416 c0 -2 7 -7 16 -10 8 -3 12 -2 9 4 -6 10 -25 14 -25 6z"/>
<path d="M3350 2376 c0 -2 7 -7 16 -10 8 -3 12 -2 9 4 -6 10 -25 14 -25 6z"/>
<path d="M1691 2343 c7 -12 15 -20 18 -17 3 2 -3 12 -13 22 -17 16 -18 16 -5
-5z"/>
<path d="M3196 2328 c3 -5 10 -6 15 -3 13 9 11 12 -6 12 -8 0 -12 -4 -9 -9z"/>
<path d="M3735 2310 c-3 -5 -1 -10 4 -10 6 0 11 5 11 10 0 6 -2 10 -4 10 -3 0
-8 -4 -11 -10z"/>
<path d="M1875 2301 c-3 -5 -2 -12 3 -15 5 -3 9 1 9 9 0 17 -3 19 -12 6z"/>
<path d="M530 2290 c0 -5 5 -10 11 -10 5 0 7 5 4 10 -3 6 -8 10 -11 10 -2 0
-4 -4 -4 -10z"/>
<path d="M2413 2279 c-2 -23 3 -25 10 -4 4 8 3 16 -1 19 -4 3 -9 -4 -9 -15z"/>
<path d="M3585 2190 c3 -5 8 -10 11 -10 2 0 4 5 4 10 0 6 -5 10 -11 10 -5 0
-7 -4 -4 -10z"/>
<path d="M2855 2170 c-3 -5 -1 -10 4 -10 6 0 11 5 11 10 0 6 -2 10 -4 10 -3 0
-8 -4 -11 -10z"/>
<path d="M1336 2113 c-6 -14 -5 -15 5 -6 7 7 10 15 7 18 -3 3 -9 -2 -12 -12z"/>
<path d="M1895 2090 c-4 -6 -11 -8 -16 -5 -5 4 -9 1 -9 -6 0 -7 -3 -10 -6 -6
-4 3 -19 0 -35 -9 -16 -8 -31 -13 -34 -12 -2 2 -12 -7 -20 -20 -9 -12 -20 -20
-24 -17 -5 2 -13 -7 -19 -20 -7 -14 -16 -25 -22 -25 -6 0 -8 -4 -5 -10 3 -5 1
-10 -4 -10 -6 0 -11 -7 -11 -15 0 -8 -4 -15 -10 -15 -5 0 -9 -6 -7 -12 1 -7
-4 -12 -12 -10 -10 2 -12 -1 -5 -10 11 -15 10 -130 -2 -149 -4 -8 -3 -9 4 -5
16 10 15 -16 0 -34 -11 -12 -10 -12 3 -2 14 11 19 8 29 -20 7 -18 12 -37 11
-41 -1 -5 3 -5 9 -2 7 4 14 -2 17 -14 3 -12 10 -21 15 -21 5 0 6 -6 2 -12 -4
-7 -4 -10 1 -6 8 7 65 -21 65 -32 0 -3 10 -7 22 -7 13 -1 24 -7 26 -13 2 -5 8
-8 13 -5 5 3 18 1 30 -6 16 -8 20 -8 14 1 -6 9 -2 9 14 1 15 -8 21 -9 21 -1 0
6 5 8 10 5 6 -4 7 -11 4 -17 -4 -7 -2 -8 5 -4 6 4 9 11 6 16 -3 5 7 8 22 7 16
-2 34 3 41 10 7 6 21 10 32 8 11 -2 18 0 15 4 -2 5 2 14 10 21 8 7 15 9 15 5
0 -5 9 3 21 16 12 13 25 23 30 21 5 -1 8 1 7 5 -4 15 14 53 24 53 6 0 8 3 5 7
-4 3 1 12 11 20 9 8 11 12 5 8 -10 -4 -10 0 -4 17 5 13 15 22 22 20 9 -2 9 1
2 10 -15 19 -15 80 0 72 7 -3 4 1 -6 9 -12 10 -14 17 -8 22 6 3 11 11 11 16 0
6 -4 7 -10 4 -5 -3 -10 3 -10 14 0 10 3 21 8 24 4 2 2 2 -5 1 -6 -2 -14 4 -17
12 -9 22 -7 26 6 18 7 -4 8 -3 4 5 -4 6 -11 9 -16 6 -12 -7 -32 30 -22 40 4 5
2 5 -4 2 -12 -7 -47 25 -39 36 3 4 2 5 -1 3 -3 -2 -33 8 -66 24 -33 16 -67 26
-76 23 -11 -5 -13 -3 -7 8 7 11 5 11 -10 -1 -10 -8 -21 -13 -24 -12 -31 19
-40 21 -46 12z m70 -160 c-5 -11 -3 -12 6 -3 15 15 39 6 40 -16 0 -11 2 -12 6
-3 8 22 44 -28 37 -52 -4 -17 -3 -18 5 -6 6 8 11 13 12 10 7 -44 6 -66 -4 -72
-9 -6 -9 -8 1 -8 6 0 12 -5 12 -11 0 -6 -7 -8 -16 -5 -14 5 -15 4 -4 -9 10
-12 10 -15 0 -15 -8 0 -10 -3 -7 -6 8 -8 -53 -64 -70 -64 -7 0 -13 5 -13 10 0
6 -5 10 -11 10 -5 0 -8 -4 -5 -9 7 -10 -19 -23 -28 -13 -4 3 -17 7 -29 9 -12
2 -23 8 -25 13 -2 6 -10 10 -17 10 -15 0 -42 40 -28 40 4 0 2 4 -6 9 -22 14
-21 80 0 120 23 44 68 74 86 59 10 -8 12 -7 8 3 -4 10 3 14 25 14 23 0 29 -4
25 -15z"/>
<path d="M3750 2090 c0 -5 5 -10 11 -10 5 0 7 5 4 10 -3 6 -8 10 -11 10 -2 0
-4 -4 -4 -10z"/>
<path d="M1314 2079 c-3 -6 -2 -15 3 -20 5 -5 9 -1 9 11 0 23 -2 24 -12 9z"/>
<path d="M1530 2070 c0 -5 5 -10 11 -10 5 0 7 5 4 10 -3 6 -8 10 -11 10 -2 0
-4 -4 -4 -10z"/>
<path d="M3310 2030 c0 -5 9 -14 20 -20 11 -6 20 -9 20 -8 0 2 -9 11 -20 21
-11 9 -20 13 -20 7z"/>
<path d="M3116 2003 c-6 -14 -5 -15 5 -6 7 7 10 15 7 18 -3 3 -9 -2 -12 -12z"/>
<path d="M1675 1970 c3 -5 8 -10 11 -10 2 0 4 5 4 10 0 6 -5 10 -11 10 -5 0
-7 -4 -4 -10z"/>
<path d="M2415 1921 c-3 -5 -2 -12 3 -15 5 -3 9 1 9 9 0 17 -3 19 -12 6z"/>
<path d="M166 1752 c-3 -5 1 -9 9 -9 8 0 12 4 9 9 -3 4 -7 8 -9 8 -2 0 -6 -4
-9 -8z"/>
<path d="M1293 1699 c-2 -23 3 -25 10 -4 4 8 3 16 -1 19 -4 3 -9 -4 -9 -15z"/>
<path d="M2594 1694 c-18 -14 -18 -15 4 -4 12 6 22 13 22 15 0 8 -5 6 -26 -11z"/>
<path d="M150 1680 c0 -5 5 -10 11 -10 5 0 7 5 4 10 -3 6 -8 10 -11 10 -2 0
-4 -4 -4 -10z"/>
<path d="M3035 1540 c-3 -5 -19 -8 -35 -6 -16 2 -27 0 -25 -5 7 -10 -32 -22
-45 -14 -5 3 -10 1 -10 -6 0 -6 -8 -9 -20 -6 -11 3 -18 1 -15 -3 5 -8 -70 -36
-86 -32 -10 2 -14 -72 -6 -120 3 -20 0 -28 -10 -28 -8 0 -11 -5 -7 -12 5 -8 2
-9 -11 -4 -14 5 -15 3 -7 -6 17 -21 -22 -61 -53 -56 -13 3 -22 1 -19 -3 3 -5
-5 -8 -17 -6 -38 6 -59 -23 -60 -81 -1 -35 -5 -50 -13 -45 -6 3 -5 0 2 -8 14
-16 16 -33 2 -24 -5 3 -10 1 -10 -4 0 -6 5 -11 10 -11 6 0 10 -7 10 -16 0 -9
-5 -12 -12 -8 -10 6 -10 4 0 -7 6 -7 12 -25 12 -40 0 -15 6 -31 13 -37 11 -10
23 -13 90 -27 12 -2 37 -24 53 -48 28 -39 30 -45 15 -55 -14 -10 -14 -11 2 -6
9 4 17 1 17 -5 0 -6 -4 -11 -10 -11 -5 0 -6 -7 -3 -17 5 -12 3 -14 -7 -8 -10
6 -11 4 -4 -6 4 -8 10 -23 11 -34 2 -11 10 -25 18 -31 8 -6 11 -15 7 -19 -4
-5 -2 -5 4 -2 13 7 127 -27 118 -35 -3 -4 4 -4 17 -1 12 4 20 2 16 -3 -8 -14
69 -10 86 4 8 7 17 9 21 5 4 -4 4 1 0 11 -4 11 -2 21 7 27 8 4 14 16 14 26 0
10 5 18 12 18 19 0 57 36 47 44 -6 3 -9 13 -9 21 0 8 -5 21 -12 28 -7 8 -11
18 -8 23 4 5 -3 5 -17 0 -26 -10 -32 -11 -51 -11 -22 0 -54 -34 -49 -50 5 -13
3 -13 -13 0 -17 14 -17 14 -7 -7 9 -17 9 -22 -3 -26 -10 -4 -12 -1 -8 11 6 15
5 15 -10 3 -12 -9 -17 -10 -17 -2 0 7 -6 11 -12 10 -33 -4 -38 1 -32 29 4 15
12 30 18 34 8 5 7 8 -1 8 -7 0 -13 6 -13 13 0 7 -14 28 -31 46 -18 20 -29 41
-26 52 3 12 0 16 -9 12 -17 -6 -19 13 -1 21 6 3 3 4 -8 3 -12 -1 -19 3 -17 11
1 6 -5 12 -14 12 -14 0 -15 2 -3 18 12 15 12 16 -1 6 -16 -13 -58 -13 -78 -1
-9 7 -9 12 3 23 8 9 15 20 15 27 0 6 -6 2 -14 -9 -15 -19 -15 -19 -11 1 2 11
4 22 5 25 1 3 2 9 1 14 -1 5 5 4 13 -3 12 -10 16 -9 25 6 6 10 11 12 11 6 0
-18 38 16 56 50 9 16 20 25 26 21 7 -5 8 -3 3 5 -9 15 33 63 48 54 6 -3 7 -1
3 5 -4 7 -2 12 4 12 6 0 8 5 5 10 -4 6 -1 18 7 27 9 12 9 15 1 9 -9 -4 -13 -1
-13 9 0 11 5 15 15 12 8 -4 17 -2 20 4 4 5 3 9 -2 8 -19 -3 -31 2 -36 14 -3 8
0 14 6 14 7 0 21 4 32 8 20 7 20 6 1 -9 -11 -9 -15 -16 -9 -16 7 0 15 5 18 10
4 6 11 8 16 5 5 -3 6 1 3 9 -3 9 -1 16 5 16 6 0 11 -7 11 -15 0 -8 6 -15 13
-15 8 0 7 -4 -3 -10 -13 -8 -13 -10 2 -10 9 0 19 -8 22 -18 6 -18 18 -22 63
-22 12 0 25 -5 28 -10 3 -6 15 -10 25 -10 10 0 22 -5 26 -12 4 -7 3 -8 -4 -4
-8 5 -10 1 -5 -9 3 -10 8 -13 12 -6 9 15 67 8 63 -8 -1 -7 2 -10 7 -6 6 3 7
13 4 22 -5 13 -2 15 11 10 9 -4 15 -3 12 2 -3 5 0 11 8 14 16 6 50 -26 39 -36
-3 -4 -2 -7 4 -7 6 0 14 -7 17 -16 3 -8 2 -13 -2 -11 -4 2 -15 -4 -24 -15 -10
-10 -15 -18 -10 -18 4 0 -2 -7 -12 -15 -11 -8 -16 -15 -12 -15 5 0 2 -8 -5
-17 -8 -9 -9 -14 -3 -10 7 4 14 -2 17 -13 5 -21 -2 -25 -19 -12 -5 4 -1 -1 8
-10 17 -16 17 -17 1 -21 -15 -4 -15 -5 2 -6 17 -1 18 -3 5 -11 -10 -6 -11 -10
-3 -10 9 0 10 -7 4 -22 -10 -29 -5 -46 26 -80 25 -26 26 -68 2 -68 -6 0 -7 5
-3 12 4 7 3 8 -5 4 -9 -6 -9 -11 -1 -21 16 -19 -13 -40 -31 -23 -23 22 -42 15
-64 -25 -12 -20 -23 -35 -26 -33 -2 2 -5 -8 -5 -22 -1 -15 1 -21 3 -14 3 6 9
12 14 12 6 0 8 -4 4 -9 -3 -5 0 -13 6 -17 8 -4 9 -3 5 4 -4 7 -1 12 8 12 8 0
18 -5 22 -12 5 -7 3 -8 -6 -3 -9 6 -11 4 -6 -4 5 -7 14 -10 21 -7 7 2 17 0 23
-6 12 -12 74 -19 67 -8 -3 5 7 18 21 29 15 12 23 21 19 21 -4 0 -2 7 5 15 7 8
16 13 20 10 4 -3 7 3 6 13 0 9 5 16 12 14 8 -1 11 2 7 8 -4 6 -1 17 5 26 10
11 16 12 29 2 13 -10 14 -10 4 2 -14 15 -18 34 -5 27 4 -3 7 16 8 41 0 26 -1
42 -3 35 -3 -8 -17 -1 -39 19 -34 32 -44 58 -21 58 8 0 7 4 -3 10 -13 9 -13
11 0 20 10 6 11 10 3 10 -7 0 -13 5 -13 11 0 5 6 7 13 3 7 -5 6 0 -3 10 -13
17 -11 21 21 50 20 17 38 42 42 55 6 24 -10 71 -25 71 -4 0 -8 7 -8 15 0 9 -7
18 -15 21 -8 4 -12 10 -9 15 3 5 10 6 16 3 7 -4 8 -2 4 4 -4 6 -12 9 -19 7
-12 -5 -64 62 -60 77 2 4 -5 4 -14 1 -11 -4 -14 -3 -9 6 8 12 -66 -13 -97 -35
-15 -9 -27 -9 -60 4 -23 9 -45 21 -49 27 -5 6 -8 5 -8 -3 0 -7 -5 -10 -11 -7
-6 4 -8 10 -5 13 3 3 1 11 -6 19 -6 7 -8 16 -5 19 3 3 -6 17 -20 30 -13 12
-22 28 -18 33 3 6 4 11 1 11 -3 0 -8 -4 -11 -10z"/>
<path d="M2726 1508 c3 -5 10 -6 15 -3 13 9 11 12 -6 12 -8 0 -12 -4 -9 -9z"/>
<path d="M2715 1430 c3 -5 8 -10 11 -10 2 0 4 5 4 10 0 6 -5 10 -11 10 -5 0
-7 -4 -4 -10z"/>
<path d="M3215 1430 c-3 -5 -1 -10 4 -10 6 0 11 5 11 10 0 6 -2 10 -4 10 -3 0
-8 -4 -11 -10z"/>
<path d="M20 1401 c0 -6 4 -13 10 -16 6 -3 7 1 4 9 -7 18 -14 21 -14 7z"/>
<path d="M1430 1339 c0 -5 5 -7 10 -4 6 3 10 8 10 11 0 2 -4 4 -10 4 -5 0 -10
-5 -10 -11z"/>
<path d="M2420 1336 c0 -2 7 -7 16 -10 8 -3 12 -2 9 4 -6 10 -25 14 -25 6z"/>
<path d="M3280 1286 c0 -2 7 -7 16 -10 8 -3 12 -2 9 4 -6 10 -25 14 -25 6z"/>
<path d="M310 1271 c0 -6 4 -13 10 -16 6 -3 7 1 4 9 -7 18 -14 21 -14 7z"/>
<path d="M2730 1270 c-9 -6 -10 -10 -3 -10 6 0 15 5 18 10 8 12 4 12 -15 0z"/>
<path d="M3075 1271 c-3 -5 -2 -12 3 -15 5 -3 9 1 9 9 0 17 -3 19 -12 6z"/>
<path d="M3015 1248 c-4 -10 -11 -18 -17 -18 -5 0 -6 6 -2 12 5 7 -5 3 -20
-10 -16 -12 -33 -19 -39 -15 -5 3 -7 1 -4 -4 4 -6 1 -16 -7 -22 -11 -9 -15 -9
-18 1 -3 8 -7 6 -11 -6 -4 -10 -3 -15 3 -11 13 8 13 4 -4 -36 -14 -36 -14 -66
-1 -114 5 -17 7 -34 6 -38 -1 -5 3 -6 8 -2 13 8 34 -32 25 -48 -5 -7 0 -6 10
3 16 13 20 12 31 -3 6 -9 14 -15 16 -13 2 2 25 1 51 -3 30 -5 45 -4 41 2 -3 5
0 8 8 5 7 -2 22 4 33 13 10 10 23 16 28 13 4 -3 8 0 8 6 0 7 7 9 16 6 13 -5
14 -3 6 6 -7 9 -7 18 3 31 10 13 14 15 18 5 2 -7 3 6 1 30 -1 23 1 42 6 42 5
0 2 16 -6 36 -8 20 -13 42 -10 50 3 8 0 11 -10 7 -8 -3 -14 1 -14 11 0 9 -6
16 -14 16 -8 0 -16 4 -18 8 -1 4 -22 17 -45 29 -23 11 -40 16 -37 12 3 -5 -1
-9 -10 -9 -8 0 -16 6 -19 13 -3 8 -7 6 -12 -5z m19 -123 c-18 -14 -18 -15 7
-6 16 6 31 6 40 -1 11 -8 10 -9 -4 -4 -11 3 -16 2 -12 -4 3 -6 13 -10 22 -10
13 0 13 -3 3 -15 -7 -8 -10 -21 -7 -29 12 -31 -67 -25 -84 6 -9 16 -8 19 3 15
7 -2 12 -10 11 -16 -2 -6 2 -11 7 -11 13 0 12 11 -4 32 -7 10 -17 14 -22 10
-5 -4 2 5 15 21 14 15 29 27 35 27 5 0 1 -7 -10 -15z"/>
<path d="M3030 1091 c0 -6 6 -8 14 -5 11 4 13 0 9 -15 -3 -12 -1 -21 4 -21 17
0 7 45 -10 48 -9 2 -17 -1 -17 -7z"/>
<path d="M3290 1250 c0 -5 5 -10 11 -10 5 0 7 5 4 10 -3 6 -8 10 -11 10 -2 0
-4 -4 -4 -10z"/>
<path d="M430 1186 c0 -2 8 -10 18 -17 15 -13 16 -12 3 4 -13 16 -21 21 -21
13z"/>
<path d="M475 1170 c-3 -5 -1 -10 4 -10 6 0 11 5 11 10 0 6 -2 10 -4 10 -3 0
-8 -4 -11 -10z"/>
<path d="M2753 1085 c0 -8 4 -12 9 -9 5 3 6 10 3 15 -9 13 -12 11 -12 -6z"/>
<path d="M2736 1052 c-3 -5 1 -9 9 -9 8 0 12 4 9 9 -3 4 -7 8 -9 8 -2 0 -6 -4
-9 -8z"/>
<path d="M3216 1052 c-3 -5 1 -9 9 -9 8 0 12 4 9 9 -3 4 -7 8 -9 8 -2 0 -6 -4
-9 -8z"/>
<path d="M3249 1033 c-13 -16 -12 -17 4 -4 16 13 21 21 13 21 -2 0 -10 -8 -17
-17z"/>
<path d="M3410 1026 c0 -8 4 -17 9 -20 5 -4 7 3 4 14 -6 23 -13 26 -13 6z"/>
<path d="M376 1017 c3 -10 9 -15 12 -12 3 3 0 11 -7 18 -10 9 -11 8 -5 -6z"/>
<path d="M2875 990 c3 -5 8 -10 11 -10 2 0 4 5 4 10 0 6 -5 10 -11 10 -5 0 -7
-4 -4 -10z"/>
<path d="M2873 955 c0 -8 4 -12 9 -9 5 3 6 10 3 15 -9 13 -12 11 -12 -6z"/>
<path d="M3273 955 c0 -8 4 -15 9 -15 4 0 8 4 8 9 0 6 -4 12 -8 15 -5 3 -9 -1
-9 -9z"/>
<path d="M3053 895 c0 -8 4 -12 9 -9 5 3 6 10 3 15 -9 13 -12 11 -12 -6z"/>
<path d="M3276 868 c3 -5 10 -6 15 -3 13 9 11 12 -6 12 -8 0 -12 -4 -9 -9z"/>
<path d="M2756 852 c-3 -5 1 -9 9 -9 8 0 12 4 9 9 -3 4 -7 8 -9 8 -2 0 -6 -4
-9 -8z"/>
<path d="M3170 829 c0 -5 5 -7 10 -4 6 3 10 8 10 11 0 2 -4 4 -10 4 -5 0 -10
-5 -10 -11z"/>
<path d="M2930 801 c0 -7 -5 -9 -12 -5 -7 5 -8 3 -3 -5 5 -9 10 -10 18 -2 6 6
8 14 4 18 -4 3 -7 1 -7 -6z"/>
<path d="M3359 743 c-13 -16 -12 -17 4 -4 16 13 21 21 13 21 -2 0 -10 -8 -17
-17z"/>
<path d="M3133 725 c0 -8 4 -12 9 -9 5 3 6 10 3 15 -9 13 -12 11 -12 -6z"/>
</g>
</svg>
